<?xml version="1.0" encoding="utf-8"?>
<!-- Generator: Adobe Illustrator 16.0.4, SVG Export Plug-In . SVG Version: 6.00 Build 0)  -->
<!DOCTYPE svg PUBLIC "-//W3C//DTD SVG 1.1//EN" "http://www.w3.org/Graphics/SVG/1.1/DTD/svg11.dtd">
<svg version="1.1" id="signature_xA0_Image_1_" xmlns="http://www.w3.org/2000/svg" xmlns:xlink="http://www.w3.org/1999/xlink"
	 x="0px" y="0px" width="149.981px" height="149.981px" viewBox="0 0 149.981 149.981" enable-background="new 0 0 149.981 149.981"
	 xml:space="preserve">
<g>
	<path fill-rule="evenodd" clip-rule="evenodd" d="M46.597,90.603c-3.609,0.843-6.004,3.921-9.57,4.25
		c-0.228,0.021-0.492-0.347-1.105-0.812c2.286-2.553,5.38-3.764,8.174-5.34c1.951-1.101,2.688-2.322,2.543-4.749
		c-0.246-4.129,0.167-8.302,0.412-12.451c0.067-1.15,0.496-2.559,1.984-2.346c1.757,0.252,1.021,1.776,0.904,2.817
		c-0.458,4.098-0.721,8.184-0.179,12.394c7.63-2.962,19.559-12.456,23.038-18.371c-5.696-0.285-11.235-0.431-16.75-0.877
		c-5.536-0.448-10.979-1.358-14.23-6.728c-0.794-1.312-1.917-0.988-3.079-0.823c-8.418,1.191-16.744,2.804-24.624,6.101
		c-2.524,1.057-5.476,1.79-6.423,5.006c-0.265,0.898-0.962,1.479-1.867,0.908c-0.995-0.628-0.973-1.72-0.514-2.667
		c1.259-2.596,3.776-3.704,6.186-4.777c8.422-3.752,17.389-5.556,26.415-7.092c1.464-0.249,2.607-0.288,3.455-2.087
		c4.886-10.38,15.254-15.149,26.843-12.441c10.47,2.448,18.943,8.122,25.034,16.939c2.051,2.968,4.005,3.563,7.396,2.998
		c13.285-2.216,26.625-4.102,39.943-6.117c0.981-0.148,1.961-0.448,3.075,0.291c-0.468,2.406-2.545,2.083-4.18,2.334
		c-11.673,1.789-23.354,3.522-35.028,5.307c-6.182,0.945-6.52,1.54-4.488,7.757c3.675,11.249,4.702,22.754,3.271,34.474
		c-0.154,1.264,0.729,3.476-1.566,3.554c-1.868,0.063-2.152-1.979-2.471-3.318c-2.167-9.123-2.123-18.477-2.706-27.764
		c-0.104-1.659-0.248-3.317-0.324-4.978c-0.399-8.71-0.374-8.478-8.847-7.76c-6.076,0.516-10.983,1.667-15.037,7.301
		c-4.55,6.323-11.714,10.304-18.5,14.192c-3.252,1.864-4.414,3.979-3.842,7.567c0.627,3.938,0.866,7.935,1.358,11.896
		c0.132,1.063,1.271,2.367-0.517,2.851c-1.565,0.425-1.964-1.04-2.126-2.136C47.925,100.98,47.315,96.037,46.597,90.603z
		 M44.105,54.114c7.775-0.469,15.091-1.187,22.377-0.112c3.808,0.561,8.465,1.023,9.974,4.673c1.782,4.312,4.338,3.967,7.663,3.508
		c1.809-0.249,3.651-0.268,5.481-0.35c2.541-0.113,3.476-0.895,1.622-3.269c-7.184-9.201-16.146-15.377-28.111-16.003
		C53.964,42.083,46.938,46.361,44.105,54.114z M43.672,57.149c1.829,1.455,2.495,2.204,3.328,2.612
		c8.45,4.15,17.515,3.239,26.47,3.044c1.943-0.043,1.43-1.486,0.738-2.496c-1.21-1.764-3.191-2.405-5.119-2.866
		C61.211,55.558,53.284,55.791,43.672,57.149z"/>
	<path fill-rule="evenodd" clip-rule="evenodd" d="M79.616,93.608c0.961,0.427,1.53-0.271,2.158-0.769
		c0.869-0.687,1.821-0.973,2.657-0.11c0.89,0.918,0.265,1.862-0.313,2.671c-0.576,0.807-1.36,1.476-1.881,2.312
		c-2.026,3.252-0.923,5.837,2.915,6.533c1.775,0.322,3.637,0.192,5.46,0.227c1.652,0.031,3.307,0.007,4.543,0.007
		c-5.988,3.264-11.052,2.814-16.302-1.993c-1.567-1.435-2.354-0.141-3.383,0.442c-2.603,1.476-5.157,3.09-8.214,3.404
		c-3.782,0.391-5.676-1.883-4.698-5.509c1.056-3.914,9.993-11.559,14.041-11.797c3.533-0.208,4.433,1.616,3.167,4.756
		c-1.697,0.452-2.04-2.514-3.762-1.637c-4.177,2.128-7.977,4.8-10.41,8.938c-0.904,1.539-0.104,2.518,1.636,2.662
		C71.553,104.106,78.87,98.112,79.616,93.608z"/>
</g>
<path fill-rule="evenodd" clip-rule="evenodd" fill="none" d="M44.105,54.114c2.833-7.753,9.859-12.031,19.006-11.552
	c11.966,0.626,20.928,6.802,28.111,16.003c1.854,2.375,0.919,3.156-1.622,3.269c-1.83,0.082-3.673,0.101-5.481,0.35
	c-3.325,0.459-5.881,0.804-7.663-3.508c-1.508-3.65-6.166-4.113-9.974-4.673C59.196,52.928,51.88,53.646,44.105,54.114z"/>
<path fill-rule="evenodd" clip-rule="evenodd" fill="none" d="M43.672,57.149c9.612-1.358,17.539-1.591,25.417,0.294
	c1.928,0.461,3.909,1.102,5.119,2.866c0.691,1.01,1.205,2.453-0.738,2.496C64.516,63,55.451,63.911,47,59.761
	C46.167,59.353,45.501,58.604,43.672,57.149z"/>
<path fill-rule="evenodd" clip-rule="evenodd" fill="none" d="M79.616,93.608c-0.746,4.504-8.062,10.498-12.385,10.138
	c-1.74-0.145-2.54-1.123-1.636-2.662c2.433-4.139,6.232-6.811,10.41-8.938c1.722-0.877,2.064,2.089,3.762,1.637
	C79.758,93.774,79.616,93.608,79.616,93.608z"/>
</svg>
